<?xml version="1.0" standalone="no"?>
<!DOCTYPE svg PUBLIC "-//W3C//DTD SVG 20010904//EN"
 "http://www.w3.org/TR/2001/REC-SVG-20010904/DTD/svg10.dtd">
<svg version="1.0" xmlns="http://www.w3.org/2000/svg"
 width="700.000000pt" height="700.000000pt" viewBox="0 0 700.000000 700.000000"
 preserveAspectRatio="xMidYMid meet">

<g transform="translate(0.000000,700.000000) scale(0.100000,-0.100000)"
fill="#000000" stroke="none">
<path d="M3463 6933 c43 -2 110 -2 150 0 40 1 5 3 -78 3 -82 0 -115 -2 -72 -3z"/>
<path d="M3028 6923 c17 -2 47 -2 65 0 17 2 3 4 -33 4 -36 0 -50 -2 -32 -4z"/>
<path d="M3898 6923 c12 -2 32 -2 45 0 12 2 2 4 -23 4 -25 0 -35 -2 -22 -4z"/>
<path d="M2526 6753 c-93 -347 -182 -817 -220 -1163 -70 -624 -60 -893 44
-1201 59 -174 183 -405 289 -539 139 -175 627 -680 657 -680 8 0 14 -4 14 -9
0 -5 9 -7 20 -4 11 3 20 10 20 15 0 9 34 5 84 -9 17 -5 18 -1 13 26 -4 19 -2
31 4 31 6 0 7 5 4 10 -4 6 -11 8 -16 4 -5 -3 -9 -2 -8 3 7 39 -3 53 -43 63
-90 23 -306 153 -458 275 -186 149 -379 393 -478 605 -169 364 -207 659 -152
1200 49 480 117 878 219 1278 27 106 45 192 41 192 -4 0 -19 -44 -34 -97z
m804 -3468 c17 -9 30 -20 30 -25 0 -5 15 -13 33 -18 l32 -9 -48 -8 c-33 -5
-52 -4 -62 5 -8 7 -15 9 -15 5 0 -5 -9 2 -20 15 -21 25 -24 33 -13 43 10 11
32 8 63 -8z"/>
<path d="M4502 6618 c111 -447 194 -986 229 -1482 24 -344 -24 -622 -157 -919
-79 -177 -115 -234 -260 -407 -133 -160 -335 -327 -517 -429 -38 -22 -56 -38
-53 -47 6 -15 -1 -17 -50 -14 -26 1 -33 -4 -44 -29 -7 -17 -16 -31 -21 -31 -5
0 -9 -4 -9 -9 0 -16 64 -7 84 12 27 23 36 21 36 -8 0 -14 -4 -25 -10 -25 -5 0
-10 -10 -10 -21 0 -21 -8 -22 -50 -5 -17 7 -48 -9 -38 -20 4 -3 27 -7 53 -8
l45 -1 188 185 c294 290 417 430 536 610 130 194 225 429 271 670 71 367 -27
1272 -221 2027 -24 95 -44 175 -44 178 0 3 -4 5 -8 5 -5 0 18 -105 50 -232z
m-702 -3298 c0 -5 -5 -10 -11 -10 -5 0 -7 5 -4 10 3 6 8 10 11 10 2 0 4 -4 4
-10z"/>
<path d="M3566 3221 c10 -10 29 -14 54 -12 13 1 13 2 0 11 -19 13 -67 13 -54
1z"/>
<path d="M3348 3139 c-29 -16 -21 -31 11 -24 39 8 50 -12 67 -129 11 -72 14
-306 14 -1138 0 -692 -3 -1048 -10 -1048 -7 0 -11 254 -12 738 l-3 737 -5
-745 c-5 -745 -5 -745 -27 -790 -51 -103 -131 -186 -297 -308 l-31 -23 90 2
c50 1 95 6 102 11 7 6 16 7 22 4 5 -3 16 -3 25 0 13 5 9 10 -16 23 -45 22 -48
47 -6 64 38 16 64 43 70 72 2 13 11 20 24 19 15 0 20 5 17 17 -3 9 9 32 28 53
31 36 33 37 100 34 38 -1 69 -6 69 -10 0 -4 6 -8 14 -8 7 0 19 -7 26 -15 10
-12 10 -18 -1 -32 -12 -15 -12 -16 3 -11 27 11 31 -5 6 -24 l-23 -18 35 -1
c19 -1 27 -3 18 -6 -26 -7 -22 -23 5 -23 13 0 32 -6 43 -14 19 -15 19 -15 -1
-31 -19 -15 -17 -16 41 -11 50 4 64 2 77 -12 20 -22 10 -40 -29 -52 -24 -8
-22 -9 16 -4 25 3 51 6 58 6 29 3 8 38 -50 83 -35 27 -65 52 -66 57 -2 5 -24
32 -49 61 -25 28 -52 66 -61 84 -8 18 -18 31 -21 29 -12 -8 -13 79 -17 1164
-4 1080 -2 1172 26 1155 4 -3 7 3 6 11 0 9 7 18 18 20 10 1 23 7 29 13 18 18
-5 28 -51 23 -82 -8 -77 78 -80 -1229 l-3 -1153 -39 0 -40 0 -1 1113 c0 802
-4 1134 -12 1192 l-12 80 -40 2 c-22 2 -48 -2 -57 -8z m249 -171 c-3 -7 -5 -2
-5 12 0 14 2 19 5 13 2 -7 2 -19 0 -25z m-10 -555 c-1 -82 -3 -15 -3 147 0
162 2 229 3 148 2 -82 2 -214 0 -295z m0 -370 c-2 -16 -4 -3 -4 27 0 30 2 43
4 28 2 -16 2 -40 0 -55z m0 -265 c-2 -35 -3 -7 -3 62 0 69 1 97 3 63 2 -35 2
-91 0 -125z m10 -970 c-3 -7 -5 -2 -5 12 0 14 2 19 5 13 2 -7 2 -19 0 -25z"/>
<path d="M3465 530 c-3 -5 3 -10 14 -10 11 0 23 5 26 10 3 6 -3 10 -14 10 -11
0 -23 -4 -26 -10z"/>
<path d="M3603 533 c9 -2 23 -2 30 0 6 3 -1 5 -18 5 -16 0 -22 -2 -12 -5z"/>
<path d="M3648 503 c7 -3 16 -2 19 1 4 3 -2 6 -13 5 -11 0 -14 -3 -6 -6z"/>
<path d="M3539 448 c0 -2 -2 -20 -4 -41 -2 -21 -7 -47 -10 -57 -4 -12 1 -19
17 -23 31 -8 42 5 40 49 -2 50 -11 74 -28 74 -8 0 -14 -1 -15 -2z"/>
<path d="M3454 422 c-21 -14 -25 -44 -7 -58 26 -20 29 -18 31 26 3 39 -3 47
-24 32z"/>
<path d="M3853 423 c9 -2 23 -2 30 0 6 3 -1 5 -18 5 -16 0 -22 -2 -12 -5z"/>
<path d="M3830 392 c0 -11 11 -22 28 -28 26 -10 25 -11 -33 -29 -34 -10 -89
-18 -127 -18 -37 0 -65 -4 -62 -8 3 -5 38 -9 78 -9 39 0 76 -4 81 -9 6 -5 37
-5 75 0 69 10 118 43 107 72 -15 41 -147 66 -147 29z"/>
<path d="M3240 386 c0 -8 5 -18 10 -21 6 -4 9 -1 8 7 -2 7 3 12 10 10 8 -1 11
2 7 8 -9 15 -35 12 -35 -4z"/>
<path d="M3050 360 c0 -5 5 -10 10 -10 6 0 10 5 10 10 0 6 -4 10 -10 10 -5 0
-10 -4 -10 -10z"/>
<path d="M3078 354 c-16 -16 -15 -18 7 -36 13 -10 38 -21 55 -24 17 -4 27 -10
22 -13 -6 -4 -4 -11 4 -18 9 -9 15 -10 20 -2 4 7 9 7 13 1 3 -5 24 -18 46 -29
l39 -21 -32 -7 c-49 -10 -38 -25 18 -25 30 0 50 4 50 11 0 8 17 10 50 7 38 -4
48 -2 40 7 -5 6 -6 15 -2 19 4 4 2 7 -3 6 -6 -1 -28 -2 -50 -1 -42 1 -39 16 5
24 14 2 2 5 -25 6 -28 0 -55 5 -60 10 -6 5 -26 12 -45 14 -19 3 -37 6 -40 6
-17 4 31 21 60 22 30 1 26 3 -27 16 -43 11 -63 21 -63 32 0 12 -3 12 -12 3
-15 -15 -45 -16 -50 -2 -2 6 -11 3 -20 -6z"/>
<path d="M3715 340 c3 -5 8 -10 11 -10 2 0 4 5 4 10 0 6 -5 10 -11 10 -5 0 -7
-4 -4 -10z"/>
<path d="M3287 320 c12 -13 30 -20 54 -20 54 0 55 12 2 27 -68 17 -76 17 -56
-7z"/>
<path d="M3908 287 c-39 -9 -51 -26 -20 -28 9 -1 -16 -9 -57 -19 -40 -10 -75
-21 -77 -23 -6 -5 112 -19 151 -18 22 1 26 -1 15 -8 -10 -7 2 -11 40 -13 l55
-3 -72 -9 c-96 -11 -97 -25 -3 -39 14 -3 3 -5 -25 -6 -27 -2 -70 -6 -95 -11
-38 -8 -33 -8 30 -5 212 12 344 14 320 5 -20 -8 -15 -9 24 -5 27 3 63 5 80 6
17 0 25 3 17 6 -9 4 8 13 40 24 l54 18 -55 -4 -55 -4 60 11 c33 6 63 15 66 21
7 10 70 6 104 -7 14 -6 16 -5 6 2 -7 5 -10 15 -6 22 6 9 -4 11 -41 6 -165 -19
-316 -30 -320 -24 -3 5 2 8 10 8 8 0 38 5 67 11 36 8 47 14 38 20 -8 5 -26 7
-40 4 -14 -3 -44 -2 -67 3 -27 7 -42 6 -44 0 -4 -11 -48 -1 -47 10 3 22 -3 32
-20 32 -10 0 -36 6 -57 13 -28 10 -50 11 -76 4z m132 -47 c0 -5 -5 -10 -11
-10 -5 0 -7 5 -4 10 3 6 8 10 11 10 2 0 4 -4 4 -10z m113 -107 c-7 -2 -19 -2
-25 0 -7 3 -2 5 12 5 14 0 19 -2 13 -5z"/>
<path d="M2377 274 c-13 -13 -7 -51 11 -66 27 -24 82 -50 82 -38 0 5 -4 10
-10 10 -5 0 -10 11 -10 24 0 19 6 25 28 28 25 3 23 4 -18 19 -25 9 -52 19 -61
23 -8 4 -18 3 -22 0z"/>
<path d="M4600 249 c-28 -25 -31 -30 -13 -26 16 4 21 0 20 -14 -1 -11 -6 -19
-11 -19 -5 0 -6 -3 -3 -7 14 -14 48 37 45 67 l-3 29 -35 -30z"/>
<path d="M3021 263 c-13 -3 -37 -17 -52 -33 l-29 -28 56 -10 c44 -7 63 -6 85
5 16 8 39 14 51 13 42 -4 71 0 64 8 -9 8 -102 42 -131 47 -11 1 -31 1 -44 -2z"/>
<path d="M3616 261 c-18 -7 -18 -8 -2 -14 10 -4 43 -6 74 -6 31 1 48 4 38 6
-15 4 -16 7 -5 14 17 11 -77 11 -105 0z"/>
<path d="M3578 233 c7 -3 16 -2 19 1 4 3 -2 6 -13 5 -11 0 -14 -3 -6 -6z"/>
<path d="M3645 214 c11 -11 24 -14 43 -9 25 7 25 8 7 15 -11 5 -30 9 -43 9
-22 1 -22 0 -7 -15z"/>
<path d="M3623 188 c-2 -5 21 -8 51 -8 31 0 56 3 56 8 0 4 -23 7 -51 7 -28 0
-53 -3 -56 -7z"/>
<path d="M4455 170 c-3 -6 1 -7 9 -4 18 7 21 14 7 14 -6 0 -13 -4 -16 -10z"/>
<path d="M2843 150 c27 -8 140 -14 182 -9 33 3 -85 17 -150 17 -48 0 -55 -1
-32 -8z"/>
<path d="M4465 150 l-20 -9 20 0 c11 0 29 4 40 9 l20 9 -20 0 c-11 0 -29 -4
-40 -9z"/>
<path d="M3240 130 c0 -6 27 -10 60 -10 33 0 60 4 60 10 0 6 -27 10 -60 10
-33 0 -60 -4 -60 -10z"/>
<path d="M4408 133 c7 -3 16 -2 19 1 4 3 -2 6 -13 5 -11 0 -14 -3 -6 -6z"/>
<path d="M2723 113 c9 -2 23 -2 30 0 6 3 -1 5 -18 5 -16 0 -22 -2 -12 -5z"/>
<path d="M2808 103 c6 -2 18 -2 25 0 6 3 1 5 -13 5 -14 0 -19 -2 -12 -5z"/>
<path d="M3288 103 c7 -3 16 -2 19 1 4 3 -2 6 -13 5 -11 0 -14 -3 -6 -6z"/>
<path d="M2913 93 c15 -2 39 -2 55 0 15 2 2 4 -28 4 -30 0 -43 -2 -27 -4z"/>
<path d="M4078 93 c12 -2 30 -2 40 0 9 3 -1 5 -23 4 -22 0 -30 -2 -17 -4z"/>
<path d="M3663 73 c15 -2 39 -2 55 0 15 2 2 4 -28 4 -30 0 -43 -2 -27 -4z"/>
</g>
</svg>
